<svg width="20" height="20" viewBox="0 0 20 20" fill="none" xmlns="http://www.w3.org/2000/svg">
<path d="M19.0476 11.3596H5.07959C4.827 11.3596 4.58476 11.2159 4.40616 10.9601C4.22756 10.7042 4.12722 10.3572 4.12722 9.9954C4.12722 9.63358 4.22756 9.28658 4.40616 9.03073C4.58476 8.77488 4.827 8.63115 5.07959 8.63115H19.0476C19.3002 8.63115 19.5425 8.77488 19.7211 9.03073C19.8997 9.28658 20 9.63358 20 9.9954C20 10.3572 19.8997 10.7042 19.7211 10.9601C19.5425 11.2159 19.3002 11.3596 19.0476 11.3596ZM19.0476 3.17417H5.07959C4.827 3.17417 4.58476 3.03044 4.40616 2.77459C4.22756 2.51874 4.12722 2.17174 4.12722 1.80992C4.12722 1.4481 4.22756 1.1011 4.40616 0.845256C4.58476 0.589411 4.827 0.445678 5.07959 0.445678H19.0476C19.3002 0.445678 19.5425 0.589411 19.7211 0.845256C19.8997 1.1011 20 1.4481 20 1.80992C20 2.17174 19.8997 2.51874 19.7211 2.77459C19.5425 3.03044 19.3002 3.17417 19.0476 3.17417ZM19.0476 19.5451H5.07959C4.827 19.5451 4.58476 19.4014 4.40616 19.1455C4.22756 18.8897 4.12722 18.5427 4.12722 18.1809C4.12722 17.819 4.22756 17.472 4.40616 17.2162C4.58476 16.9604 4.827 16.8166 5.07959 16.8166H19.0476C19.3002 16.8166 19.5425 16.9604 19.7211 17.2162C19.8997 17.472 20 17.819 20 18.1809C20 18.5427 19.8997 18.8897 19.7211 19.1455C19.5425 19.4014 19.3002 19.5451 19.0476 19.5451ZM1.27012 3.62892C1.10502 3.63182 0.941121 3.58857 0.787585 3.50159C0.635848 3.39612 0.494867 3.26149 0.368544 3.10141C0.250855 2.93144 0.157745 2.72987 0.0945528 2.50825C0.0313606 2.28663 -0.000670716 2.04932 0.000295483 1.80992C0.00497286 1.32831 0.136505 0.867019 0.368544 0.518438C0.487741 0.349994 0.63058 0.219785 0.787585 0.136449C1.09674 -0.0454831 1.4435 -0.0454831 1.75265 0.136449C1.90852 0.223023 2.05093 0.352836 2.17169 0.518438C2.40373 0.867019 2.53526 1.32831 2.53994 1.80992C2.54091 2.04932 2.50888 2.28663 2.44568 2.50825C2.38249 2.72987 2.28938 2.93144 2.17169 3.10141C2.04537 3.26149 1.90439 3.39612 1.75265 3.50159C1.59911 3.58857 1.43521 3.63182 1.27012 3.62892ZM1.27012 11.8144C1.10418 11.8115 0.940246 11.7621 0.787585 11.6689C0.633702 11.5768 0.491972 11.4476 0.368544 11.2869C0.250855 11.1169 0.157745 10.9153 0.0945528 10.6937C0.0313606 10.4721 -0.000670716 10.2348 0.000295483 9.9954C0.00497286 9.51379 0.136505 9.05249 0.368544 8.70391C0.491972 8.54324 0.633702 8.41404 0.787585 8.32192C1.01745 8.16925 1.27395 8.11857 1.52408 8.1764L1.75265 8.28554L1.98122 8.44925C2.04774 8.51641 2.11135 8.58931 2.17169 8.66753C2.40975 9.02524 2.54174 9.5012 2.53994 9.9954C2.53994 10.4778 2.40616 10.9405 2.16802 11.2816C1.92988 11.6227 1.6069 11.8144 1.27012 11.8144ZM1.27012 19.9999C1.10502 20.0028 0.941121 19.9595 0.787585 19.8725C0.635848 19.7671 0.494867 19.6324 0.368544 19.4724C0.256379 19.2955 0.166187 19.0925 0.101881 18.8721C0.034701 18.6544 0 18.4189 0 18.1809C0 17.9428 0.034701 17.7074 0.101881 17.4897C0.166187 17.2692 0.256379 17.0662 0.368544 16.8894C0.547111 16.637 0.773867 16.466 1.0202 16.398C1.26653 16.33 1.5214 16.3681 1.75265 16.5074C1.90852 16.594 2.05093 16.7238 2.17169 16.8894C2.28386 17.0662 2.37405 17.2692 2.43835 17.4897C2.50553 17.7074 2.54024 17.9428 2.54024 18.1809C2.54024 18.4189 2.50553 18.6544 2.43835 18.8721C2.37405 19.0925 2.28386 19.2955 2.17169 19.4724C2.05304 19.6409 1.91232 19.7743 1.75761 19.8648C1.6029 19.9554 1.43724 20.0012 1.27012 19.9999Z" fill="white"/>
</svg>
